<?xml version="1.0" standalone="no"?>
<!DOCTYPE svg PUBLIC "-//W3C//DTD SVG 20010904//EN"
 "http://www.w3.org/TR/2001/REC-SVG-20010904/DTD/svg10.dtd">
<svg version="1.0" xmlns="http://www.w3.org/2000/svg"
 width="449.000000pt" height="449.000000pt" viewBox="0 0 449.000000 449.000000"
 preserveAspectRatio="xMidYMid meet">

<g transform="translate(0.000000,449.000000) scale(0.100000,-0.100000)"
fill="#000000" stroke="none">
<path d="M2628 4463 c22 -9 12 -25 -13 -21 -15 3 -22 1 -18 -5 4 -6 -3 -8 -18
-3 -47 12 -141 19 -147 10 -4 -5 -20 -18 -37 -28 l-30 -19 23 25 c12 13 19 28
15 31 -9 10 -43 9 -43 -1 0 -10 -46 -10 -56 0 -4 4 -13 3 -21 -3 -7 -6 -13 -7
-13 -2 0 9 -140 0 -175 -12 -16 -6 -17 -5 -5 4 12 9 11 11 -7 11 -13 0 -23 -4
-23 -9 0 -13 -43 -10 -52 4 -5 6 -8 6 -8 -2 0 -9 -18 -13 -54 -13 -30 0 -58
-5 -61 -10 -5 -8 -11 -8 -20 0 -15 13 -177 4 -185 -10 -3 -5 -41 -13 -85 -19
-141 -19 -180 -26 -177 -33 5 -16 1 -23 -6 -12 -4 6 -19 14 -34 17 -22 6 -28
3 -34 -15 -6 -19 -8 -19 -15 -5 -8 14 -14 14 -37 4 -15 -6 -33 -17 -40 -24
-16 -15 -29 -16 -37 -3 -3 5 -12 7 -20 4 -8 -4 -12 -10 -9 -15 3 -5 -2 -6 -10
-3 -15 6 -90 -39 -138 -84 -15 -14 -39 -47 -53 -74 -25 -48 -34 -76 -15 -48
13 19 2 -37 -11 -60 -6 -10 -7 -4 -3 15 11 51 -6 20 -24 -42 -14 -52 -16 -219
-19 -1645 -4 -1668 -5 -1611 37 -1813 18 -88 102 -192 221 -277 247 -176 629
-273 1074 -272 290 0 508 32 729 106 212 70 352 152 459 268 70 76 90 114 119
227 l22 88 2 1540 c0 847 -2 1590 -6 1650 -7 118 -34 220 -77 287 -25 41 -106
109 -162 138 -45 23 -202 78 -244 86 -18 3 -39 7 -47 9 -8 1 -22 -1 -31 -6 -9
-4 -20 -4 -26 2 -5 5 -36 11 -69 12 -32 2 -68 7 -79 11 -17 7 -17 6 -5 -4 12
-10 12 -11 -5 -4 -11 4 -49 10 -84 12 -45 3 -70 9 -84 23 -12 10 -26 19 -31
18 -6 0 -5 -3 2 -6z m-321 -48 c-2 -5 -16 -9 -30 -7 -27 3 -38 -12 -14 -21 8
-4 9 -6 0 -6 -6 -1 -18 6 -27 14 -8 8 -27 16 -43 16 -26 2 -25 2 7 8 50 10
110 8 107 -4z m-632 -105 c-3 -5 -15 -15 -25 -20 -16 -8 -18 -8 -14 4 3 8 13
17 22 19 10 3 18 5 20 6 2 0 0 -3 -3 -9z m97 3 c-6 -2 -10 -9 -6 -14 3 -5 1
-9 -5 -9 -5 0 -11 4 -13 10 -1 5 -13 7 -25 4 -13 -4 -20 -10 -17 -15 3 -5 -5
-9 -17 -9 -21 0 -22 1 -4 20 13 14 30 20 59 19 23 0 35 -3 28 -6z m1038 -13
c0 -5 -13 -10 -30 -10 -16 0 -30 5 -30 10 0 6 14 10 30 10 17 0 30 -4 30 -10z
m610 -148 c0 -4 -10 -13 -22 -21 -23 -14 -23 -14 -4 8 20 22 26 25 26 13z
m-2420 -28 c0 -8 -5 -12 -10 -9 -6 4 -8 11 -5 16 9 14 15 11 15 -7z m82 -78
c3 2 11 -2 18 -11 11 -13 10 -19 -6 -36 -16 -17 -16 -22 -4 -29 9 -6 10 -10 3
-10 -21 0 -25 21 -9 39 15 16 15 19 2 24 -8 3 -16 2 -18 -3 -2 -5 -8 2 -14 15
-11 22 -10 24 6 15 9 -5 20 -7 22 -4z m98 -9 c0 -8 -3 -8 -11 0 -6 6 -19 9
-28 6 -13 -4 -13 -3 -2 5 16 12 41 5 41 -11z m2017 6 c-33 -9 -11 -28 29 -26
32 2 36 0 21 -9 -11 -5 -32 -8 -47 -4 -20 3 -30 1 -34 -10 -3 -8 -10 -13 -14
-10 -5 3 -26 -1 -48 -9 -21 -7 -52 -15 -69 -18 -16 -3 -68 -12 -115 -21 -47
-9 -149 -22 -227 -30 -87 -8 -150 -19 -160 -27 -14 -11 -15 -11 -9 -1 12 21
-152 13 -178 -8 -18 -13 -19 -13 -14 0 7 20 -31 25 -38 5 -5 -12 -10 -12 -30
2 -28 18 -31 12 -7 -13 16 -16 16 -16 -7 -9 -14 4 -31 15 -38 24 -11 14 -12
13 -7 -9 5 -20 4 -22 -4 -10 -10 13 -14 11 -32 -10 l-21 -25 16 27 c23 38 20
42 -14 21 -16 -9 -30 -21 -30 -26 0 -4 -4 -6 -10 -2 -13 8 0 36 14 28 6 -3 5
0 -3 8 -11 12 -15 12 -24 -3 -10 -15 -12 -15 -23 0 -12 16 -14 15 -29 -3 -11
-13 -15 -15 -12 -5 3 10 -2 16 -14 17 -10 1 -19 -2 -19 -8 0 -5 5 -9 10 -9 6
0 10 -8 10 -17 0 -15 -2 -14 -19 3 -10 10 -17 22 -14 27 7 12 -31 7 -49 -7
-19 -14 -25 -38 -9 -33 9 2 11 -3 11 -25 -1 -8 -7 -5 -15 6 -12 16 -17 17 -30
6 -27 -22 -16 0 15 30 17 17 29 30 28 31 -24 6 -38 5 -38 -2 0 -5 -5 -9 -11
-9 -5 0 -7 5 -4 10 10 17 -17 11 -38 -7 -18 -16 -20 -16 -14 -1 7 19 -19 33
-29 16 -4 -7 -2 -14 4 -16 7 -2 12 -11 12 -20 0 -13 -4 -11 -16 6 -8 12 -12
27 -9 32 9 14 -29 12 -44 -2 -8 -7 -11 -8 -8 -2 6 10 -69 27 -163 39 -14 2
-81 13 -125 21 -11 2 -25 11 -31 19 -9 12 -13 13 -17 3 -4 -11 -8 -11 -27 0
-12 8 -19 9 -16 4 4 -6 -7 -6 -29 1 -35 10 -38 19 -10 23 9 1 12 -2 8 -9 -4
-7 0 -8 13 -2 10 4 29 7 42 6 14 0 21 3 16 10 -4 7 0 9 12 6 29 -9 226 -35
364 -49 197 -19 779 -16 980 6 191 20 384 52 408 66 10 5 24 9 32 9 10 -1 9
-3 -3 -6z m-1852 -13 c8 -13 -5 -13 -25 0 -13 8 -13 10 2 10 9 0 20 -4 23 -10z
m1982 4 c-3 -3 -12 -4 -19 -1 -8 3 -5 6 6 6 11 1 17 -2 13 -5z m-2302 -33 c-6
-5 -25 10 -25 20 0 5 6 4 14 -3 8 -7 12 -15 11 -17z m162 -13 c-9 -5 -26 -4
-42 4 -35 16 -12 29 28 16 24 -9 26 -13 14 -20z m93 28 c0 -3 -4 -8 -10 -11
-5 -3 -10 -1 -10 4 0 6 5 11 10 11 6 0 10 -2 10 -4z m-154 -41 c-4 -12 0 -14
18 -9 13 3 27 1 30 -4 3 -6 -3 -8 -16 -6 -13 2 -17 2 -10 -2 6 -3 12 -14 12
-25 0 -10 2 -19 4 -19 2 0 11 -3 20 -6 9 -3 16 -1 16 5 0 6 -7 11 -15 11 -8 0
-15 5 -15 10 0 6 5 10 10 10 6 0 10 9 10 19 0 10 8 22 18 26 14 5 15 4 5 -6
-17 -17 -16 -51 2 -75 8 -10 15 -14 15 -9 0 6 -4 15 -9 20 -5 6 -5 19 -1 30 5
14 11 1 24 -53 11 -44 23 -72 31 -72 7 0 21 -3 29 -6 12 -5 15 -2 10 10 -3 9
-11 13 -18 9 -6 -4 -5 1 3 10 18 23 7 34 -16 16 -15 -11 -15 -10 1 9 11 12 16
25 12 29 -4 4 -11 1 -16 -7 -10 -17 -23 -8 -25 18 0 9 -4 23 -8 29 -4 6 -3 14
2 17 5 3 12 -5 15 -18 3 -13 14 -26 24 -28 13 -4 23 -21 31 -53 14 -56 36 -92
46 -76 3 6 1 11 -6 11 -7 0 -10 3 -6 6 3 4 0 19 -8 35 -19 36 -19 45 0 29 8
-6 14 -15 13 -18 -2 -21 4 -33 22 -40 19 -7 19 -8 -4 -35 l-24 -28 -13 31
c-14 31 -24 37 -34 20 -3 -5 -1 -10 4 -10 6 0 11 -7 11 -16 0 -20 27 -47 40
-39 5 3 10 2 10 -3 0 -6 -7 -13 -16 -16 -8 -3 -12 -11 -8 -17 4 -8 3 -9 -4 -5
-8 5 -12 -1 -13 -16 l-2 -23 -4 23 c-2 12 -9 22 -14 22 -6 0 -8 4 -4 9 3 5 1
12 -5 16 -5 3 -10 12 -10 18 0 7 8 0 18 -16 27 -40 34 -22 10 25 l-21 40 -16
-26 c-9 -14 -19 -26 -22 -26 -9 0 -22 51 -14 58 3 3 5 -2 5 -11 0 -22 6 -21
30 3 24 24 26 34 3 26 -9 -4 -20 -1 -25 6 -6 10 -10 10 -18 -2 -8 -13 -10 -12
-10 3 0 20 -11 22 -28 5 -9 -9 -12 -9 -12 1 0 8 7 19 16 25 9 7 12 18 8 29 -7
18 -24 23 -24 7 0 -5 5 -10 12 -10 9 0 9 -3 0 -12 -10 -10 -15 -10 -21 1 -6 8
-11 9 -15 3 -3 -6 -2 -13 4 -17 5 -3 10 -16 10 -28 0 -16 -3 -18 -9 -8 -7 11
-11 10 -19 -5 -8 -15 -13 -16 -21 -7 -6 7 -8 11 -5 8 9 -6 34 14 34 27 0 6 -7
7 -16 4 -8 -3 -13 -2 -10 3 3 5 -5 12 -19 15 -14 4 -25 11 -25 17 0 6 7 8 16
5 12 -5 15 -2 10 10 -5 12 -1 14 16 8 21 -6 21 -5 9 10 -13 15 -13 19 0 27 11
7 10 10 -8 15 -21 6 -30 44 -10 44 5 0 7 -7 3 -15z m2299 5 c-3 -5 -12 -10
-18 -10 -7 0 -6 4 3 10 19 12 23 12 15 0z m-2168 -6 c-3 -3 -12 -4 -19 -1 -8
3 -5 6 6 6 11 1 17 -2 13 -5z m63 -47 c-8 -9 -9 -7 -4 7 6 16 4 18 -14 14 -12
-4 -22 -2 -22 2 0 5 8 10 18 12 22 5 38 -20 22 -35z m-340 13 c0 -4 -6 -10
-14 -13 -10 -4 -12 0 -9 14 5 18 23 18 23 -1z m383 6 c4 -10 1 -13 -9 -9 -15
6 -19 23 -5 23 5 0 11 -7 14 -14z m-263 -7 c0 -4 -8 -13 -17 -20 -14 -12 -15
-12 -9 0 5 8 3 16 -5 22 -10 6 -7 8 9 6 12 0 22 -4 22 -8z m300 -15 c0 -10 6
-14 14 -11 7 3 19 0 26 -6 10 -9 14 -9 17 1 8 22 18 12 19 -21 1 -17 -1 -24
-3 -14 -2 9 -9 17 -14 17 -6 0 -7 -9 -3 -22 6 -21 6 -21 -10 -5 -10 9 -14 21
-11 27 3 5 -1 10 -9 10 -8 0 -20 -8 -25 -17 -12 -20 -12 -20 -15 25 -1 17 1
32 6 32 4 0 8 -7 8 -16z m-34 -33 c-9 -14 -33 -14 -41 -1 -4 6 -1 18 6 26 11
13 14 13 27 0 8 -8 11 -19 8 -25z m183 -1 c0 -10 -3 -8 -9 5 -12 27 -12 43 0
25 5 -8 9 -22 9 -30z m132 -23 c-8 -8 -11 -8 -11 0 0 6 -3 20 -7 30 -7 17 -6
17 11 0 14 -14 16 -21 7 -30z m-95 14 c-18 -19 -14 -47 5 -36 5 3 6 -1 3 -9
-4 -11 0 -16 12 -16 16 0 17 -2 4 -11 -11 -8 -12 -12 -2 -16 14 -5 17 -43 3
-43 -5 0 -25 -17 -45 -37 -25 -26 -36 -32 -36 -21 0 9 -6 19 -12 22 -7 3 1 3
17 -1 17 -3 27 -2 23 2 -4 4 0 14 10 22 12 10 14 16 5 19 -7 3 -13 12 -13 20
0 8 -4 14 -10 14 -5 0 -10 5 -10 10 0 18 17 10 30 -15 7 -14 19 -25 27 -25 18
0 17 16 -2 24 -9 3 -12 12 -8 22 4 12 3 15 -5 10 -8 -5 -12 0 -12 13 0 10 -5
21 -12 23 -7 3 -2 13 12 26 29 27 39 29 16 3z m51 -13 c-3 -7 -5 -2 -5 12 0
14 2 19 5 13 2 -7 2 -19 0 -25z m1000 16 c-3 -3 -12 -4 -19 -1 -8 3 -5 6 6 6
11 1 17 -2 13 -5z m-1204 -35 c6 -4 5 -13 -2 -25 -9 -17 -10 -17 -11 -1 0 9
-7 17 -15 17 -8 0 -15 -4 -15 -10 0 -5 5 -10 12 -10 6 0 9 -3 5 -6 -3 -3 -13
-1 -23 4 -16 9 -16 11 4 23 12 8 22 21 23 29 0 13 1 13 6 0 3 -8 10 -18 16
-21z m187 21 c0 -5 -5 -10 -11 -10 -5 0 -7 5 -4 10 3 6 8 10 11 10 2 0 4 -4 4
-10z m110 0 c0 -5 -7 -10 -15 -10 -8 0 -15 -8 -16 -17 0 -13 -2 -14 -6 -4 -3
8 2 20 13 28 21 16 24 16 24 3z m137 -12 c-3 -8 -6 -5 -6 6 -1 11 2 17 5 13 3
-3 4 -12 1 -19z m-787 -8 c0 -5 -2 -10 -4 -10 -3 0 -8 5 -11 10 -3 6 -1 10 4
10 6 0 11 -4 11 -10z m432 -27 c6 -7 5 -14 -3 -19 -8 -4 -9 -3 -5 5 4 6 1 14
-8 17 -9 3 -12 12 -9 22 6 13 7 13 11 1 3 -7 9 -19 14 -26z m141 22 c-3 -9 -8
-14 -10 -11 -3 3 -2 9 2 15 9 16 15 13 8 -4z m717 5 c0 -5 -2 -10 -4 -10 -3 0
-8 5 -11 10 -3 6 -1 10 4 10 6 0 11 -4 11 -10z m-567 -23 c14 -21 13 -25 -8
-45 -18 -17 -23 -19 -21 -6 1 8 9 20 17 24 11 7 11 12 1 22 -11 11 -16 28 -8
28 2 0 10 -10 19 -23z m-118 -17 c9 -17 11 -30 5 -30 -5 0 -10 7 -10 16 0 10
-6 14 -14 11 -10 -4 -12 0 -9 14 7 25 10 24 28 -11z m165 26 c0 -3 -4 -8 -10
-11 -5 -3 -10 -1 -10 4 0 6 5 11 10 11 6 0 10 -2 10 -4z m187 -18 c-3 -8 -6
-5 -6 6 -1 11 2 17 5 13 3 -3 4 -12 1 -19z m200 0 c-3 -8 -6 -5 -6 6 -1 11 2
17 5 13 3 -3 4 -12 1 -19z m-763 -3 c3 -8 1 -15 -4 -15 -6 0 -10 7 -10 15 0 8
2 15 4 15 2 0 6 -7 10 -15z m410 -46 c-3 -6 -12 1 -20 16 -19 36 -18 39 6 15
12 -12 18 -25 14 -31z m-904 21 c6 -11 9 -20 8 -20 -2 0 -11 9 -21 20 -9 11
-13 20 -7 20 5 0 14 -9 20 -20z m750 10 c8 -5 11 -10 5 -10 -5 0 -17 5 -25 10
-8 5 -10 10 -5 10 6 0 17 -5 25 -10z m1700 0 c0 -5 -5 -10 -11 -10 -5 0 -7 5
-4 10 3 6 8 10 11 10 2 0 4 -4 4 -10z m-2325 -10 c3 -6 -1 -7 -9 -4 -18 7 -21
14 -7 14 6 0 13 -4 16 -10z m345 0 c0 -5 -5 -10 -11 -10 -5 0 -7 5 -4 10 3 6
8 10 11 10 2 0 4 -4 4 -10z m728 -10 c12 -19 11 -20 -8 -8 -20 13 -27 28 -12
28 4 0 13 -9 20 -20z m-1001 3 c-9 -2 -14 -9 -11 -15 4 -7 2 -8 -5 -4 -15 10
-4 26 17 25 15 -1 15 -2 -1 -6z m53 -26 c0 -4 -6 -2 -14 5 -8 7 -12 17 -9 22
5 8 23 -12 23 -27z m187 11 c-3 -8 -6 -5 -6 6 -1 11 2 17 5 13 3 -3 4 -12 1
-19z m68 12 c-3 -5 -12 -10 -18 -10 -7 0 -6 4 3 10 19 12 23 12 15 0z m45 -3
c0 -2 -9 -12 -20 -22 -17 -16 -20 -16 -20 -2 0 8 8 18 18 20 9 3 18 5 20 6 1
0 2 -1 2 -2z m404 -12 c-4 -8 -8 -15 -10 -15 -2 0 -4 7 -4 15 0 8 4 15 10 15
5 0 7 -7 4 -15z m103 0 c0 -8 -4 -12 -9 -9 -4 3 -8 9 -8 15 0 5 4 9 8 9 5 0 9
-7 9 -15z m103 5 c0 -5 -2 -10 -4 -10 -3 0 -8 5 -11 10 -3 6 -1 10 4 10 6 0
11 -4 11 -10z m1293 -10 c-3 -12 -8 -19 -11 -16 -5 6 5 36 12 36 2 0 2 -9 -1
-20z m-1883 -5 c0 -8 -4 -15 -10 -15 -5 0 -7 7 -4 15 4 8 8 15 10 15 2 0 4 -7
4 -15z m165 5 c3 -5 1 -10 -4 -10 -6 0 -11 5 -11 10 0 6 2 10 4 10 3 0 8 -4
11 -10z m26 -29 c-12 -12 -21 -16 -21 -11 0 13 34 48 38 39 2 -4 -6 -17 -17
-28z m-261 -2 c0 -10 -5 -19 -11 -19 -6 0 -9 -7 -6 -14 4 -10 1 -13 -8 -9 -13
4 -13 8 0 26 11 15 12 24 3 34 -8 11 -7 12 6 7 9 -3 16 -15 16 -25z m194 25
c9 -3 16 -11 16 -16 0 -5 10 -24 21 -41 l22 -32 -32 32 c-17 18 -31 36 -31 42
0 5 -6 12 -12 14 -7 3 -10 6 -6 6 3 1 13 -2 22 -5z m156 -27 c18 -21 20 -26 7
-21 -17 6 -37 34 -37 50 0 4 1 5 3 3 1 -2 13 -17 27 -32z m30 24 c0 -6 -4 -13
-10 -16 -5 -3 -10 1 -10 9 0 9 5 16 10 16 6 0 10 -4 10 -9z m-654 -30 c-4 -6
-13 -11 -19 -11 -8 0 -7 3 2 9 8 5 10 14 6 22 -6 11 -5 11 5 2 7 -6 9 -16 6
-22z m199 12 c6 -17 7 -17 21 1 12 17 14 18 14 3 0 -9 -5 -17 -11 -17 -6 0 -9
-7 -5 -15 3 -8 1 -15 -5 -15 -6 0 -13 9 -16 20 -3 11 -9 20 -14 20 -5 0 -9 5
-9 10 0 17 17 11 25 -7z m246 -13 c5 0 9 -7 9 -15 0 -8 -5 -15 -11 -15 -5 0
-7 5 -4 10 3 6 0 13 -9 16 -9 3 -12 12 -8 22 6 16 7 15 10 0 2 -10 8 -18 13
-18z m301 8 c-7 -7 -12 -8 -12 -2 0 14 12 26 19 19 2 -3 -1 -11 -7 -17z m-967
2 c3 -5 1 -10 -4 -10 -6 0 -11 5 -11 10 0 6 2 10 4 10 3 0 8 -4 11 -10z m165
-15 c16 10 12 -11 -5 -25 -9 -7 -14 -19 -11 -27 3 -7 1 -13 -5 -13 -6 0 -8 13
-6 30 4 22 1 31 -14 35 -10 4 -19 11 -19 16 0 5 11 2 25 -7 13 -8 29 -13 35
-9z m640 16 c0 -12 -20 -25 -27 -18 -7 7 6 27 18 27 5 0 9 -4 9 -9z m-704 -43
c0 -10 -4 -18 -8 -18 -4 0 -8 9 -8 20 0 11 -5 20 -11 20 -6 0 -8 -7 -4 -17 5
-14 4 -15 -6 -6 -10 10 -9 15 0 27 15 18 37 3 37 -26z m168 16 c4 -9 4 -19 1
-22 -2 -3 -7 2 -11 11 -3 9 -13 14 -22 10 -15 -4 -15 -3 -2 6 21 15 27 14 34
-5z m344 -13 c-15 -25 -25 -27 -25 -6 0 8 6 15 14 15 7 0 13 5 13 12 0 6 3 9
6 6 3 -3 -1 -15 -8 -27z m-189 -35 c-2 -20 -2 -20 -6 1 -3 13 -9 20 -18 17
-10 -4 -12 0 -8 17 6 21 7 21 20 4 7 -11 12 -28 12 -39z m349 29 c-3 -3 -9 2
-12 12 -6 14 -5 15 5 6 7 -7 10 -15 7 -18z m-563 5 c3 -6 -1 -7 -9 -4 -18 7
-21 14 -7 14 6 0 13 -4 16 -10z m316 -4 c5 3 9 -4 9 -15 0 -10 6 -22 13 -25 6
-3 2 -3 -10 0 -25 6 -30 -5 -11 -24 9 -9 9 -12 0 -12 -7 0 -12 5 -12 11 0 6
-6 9 -12 6 -7 -2 -12 -10 -10 -16 1 -6 -2 -11 -8 -11 -16 0 -12 27 6 34 8 3
13 10 10 15 -4 5 0 12 6 15 11 5 11 7 0 12 -6 3 -9 11 -5 17 5 8 8 8 11 -1 2
-7 8 -10 13 -6z m444 5 c3 -5 1 -12 -5 -16 -5 -3 -10 1 -10 9 0 18 6 21 15 7z
m-278 -23 c-3 -8 -6 -5 -6 6 -1 11 2 17 5 13 3 -3 4 -12 1 -19z m253 -10 c0
-5 -9 -3 -20 4 -11 7 -20 16 -20 20 0 5 9 3 20 -4 11 -7 20 -16 20 -20z m-880
7 c5 3 12 0 16 -7 4 -7 4 -10 -1 -6 -4 4 -14 0 -22 -10 -12 -16 -13 -16 -6 2
4 13 3 17 -5 12 -8 -5 -10 -1 -5 10 4 11 8 13 11 6 2 -7 8 -10 12 -7z m187 -7
c-3 -8 -6 -5 -6 6 -1 11 2 17 5 13 3 -3 4 -12 1 -19z m198 12 c3 -5 1 -10 -4
-10 -6 0 -11 5 -11 10 0 6 2 10 4 10 3 0 8 -4 11 -10z m205 6 c0 -3 -4 -8 -10
-11 -5 -3 -10 -1 -10 4 0 6 5 11 10 11 6 0 10 -2 10 -4z m140 -11 c0 -8 -4
-15 -10 -15 -5 0 -7 7 -4 15 4 8 8 15 10 15 2 0 4 -7 4 -15z m-491 -45 c1 -13
0 -13 -9 0 -5 8 -9 24 -9 35 l0 20 9 -20 c5 -11 9 -27 9 -35z m313 22 c-7 -2
-12 -10 -12 -18 0 -8 -4 -14 -9 -14 -14 0 -71 -57 -64 -64 10 -10 35 -7 28 4
-3 6 -1 10 4 10 6 0 11 -7 11 -15 0 -8 -5 -15 -11 -15 -6 0 -8 -9 -4 -22 5
-14 -4 -7 -20 17 -15 22 -31 42 -36 43 -5 2 -9 8 -9 14 0 6 6 5 15 -2 13 -10
19 -10 35 5 16 15 18 21 8 33 -11 13 -10 14 7 9 14 -5 26 1 40 17 11 13 22 19
24 13 2 -6 -1 -13 -7 -15z m441 13 c-3 -9 -8 -14 -10 -11 -3 3 -2 9 2 15 9 16
15 13 8 -4z m-833 -28 c-10 -9 -14 -9 -17 1 -3 6 -9 10 -14 6 -5 -3 -9 0 -9 5
0 14 13 14 28 -1 9 -9 12 -8 13 8 0 12 3 14 6 6 3 -8 0 -19 -7 -25z m620 29
c0 -3 -4 -8 -10 -11 -5 -3 -10 -1 -10 4 0 6 5 11 10 11 6 0 10 -2 10 -4z
m-394 -31 c-14 -14 -16 -14 -16 -2 0 9 6 17 13 20 19 7 21 -1 3 -18z m361 3
c-3 -8 -6 -5 -6 6 -1 11 2 17 5 13 3 -3 4 -12 1 -19z m-387 -24 c0 -3 -7 -1
-15 6 -8 7 -15 17 -15 22 0 5 7 3 15 -6 8 -8 15 -18 15 -22z m217 14 c-3 -8
-6 -5 -6 6 -1 11 2 17 5 13 3 -3 4 -12 1 -19z m123 12 c0 -5 -10 -10 -22 -9
-22 0 -22 1 -3 9 11 5 21 9 23 9 1 1 2 -3 2 -9z m98 -15 c-3 -3 -9 2 -12 12
-6 14 -5 15 5 6 7 -7 10 -15 7 -18z m99 3 c-3 -8 -6 -5 -6 6 -1 11 2 17 5 13
3 -3 4 -12 1 -19z m-577 -10 c0 -19 -2 -20 -10 -8 -13 19 -13 30 0 30 6 0 10
-10 10 -22z m517 -2 c-8 -8 -17 -12 -21 -9 -3 3 2 12 12 19 22 16 29 9 9 -10z
m223 14 c0 -5 -2 -10 -4 -10 -3 0 -8 5 -11 10 -3 6 -1 10 4 10 6 0 11 -4 11
-10z m-953 -22 c-3 -8 -6 -5 -6 6 -1 11 2 17 5 13 3 -3 4 -12 1 -19z m83 7 c0
-8 -2 -15 -4 -15 -2 0 -6 7 -10 15 -3 8 -1 15 4 15 6 0 10 -7 10 -15z m-100
-5 c0 -5 -7 -7 -15 -4 -8 4 -15 8 -15 10 0 2 7 4 15 4 8 0 15 -4 15 -10z m307
-22 c-3 -7 -5 -2 -5 12 0 14 2 19 5 13 2 -7 2 -19 0 -25z m-230 0 c-3 -8 -6
-5 -6 6 -1 11 2 17 5 13 3 -3 4 -12 1 -19z m533 7 c0 -8 -2 -15 -4 -15 -2 0
-6 7 -10 15 -3 8 -1 15 4 15 6 0 10 -7 10 -15z m-436 -57 c15 -27 23 -48 17
-48 -5 0 -11 9 -14 20 -3 11 -11 20 -17 20 -7 0 -10 -7 -6 -17 5 -15 3 -14
-10 2 -8 11 -20 19 -25 17 -6 -1 -8 2 -4 8 4 6 15 8 26 5 11 -4 19 -2 19 4 0
6 -4 11 -9 11 -5 0 -11 10 -14 21 -8 30 6 14 37 -43z m34 37 c-3 -3 -9 2 -12
12 -6 14 -5 15 5 6 7 -7 10 -15 7 -18z m229 3 c-3 -8 -6 -5 -6 6 -1 11 2 17 5
13 3 -3 4 -12 1 -19z m365 -10 c-8 -8 -9 -4 -5 13 4 13 8 18 11 10 2 -7 -1
-18 -6 -23z m-869 2 c-3 -11 -13 -20 -22 -19 -10 0 -11 2 -3 6 6 2 12 11 12
19 0 8 4 14 9 14 5 0 7 -9 4 -20z m187 10 c0 -5 -2 -10 -4 -10 -3 0 -8 5 -11
10 -3 6 -1 10 4 10 6 0 11 -4 11 -10z m70 -16 c0 -8 5 -14 10 -14 6 0 10 -8
10 -17 0 -15 -2 -15 -13 2 -19 28 -29 57 -17 50 6 -3 10 -13 10 -21z m470 16
c0 -5 -2 -10 -4 -10 -3 0 -8 5 -11 10 -3 6 -1 10 4 10 6 0 11 -4 11 -10z m100
0 c0 -5 -2 -10 -4 -10 -3 0 -8 5 -11 10 -3 6 -1 10 4 10 6 0 11 -4 11 -10z
m-220 -10 c0 -5 -2 -10 -4 -10 -3 0 -8 5 -11 10 -3 6 -1 10 4 10 6 0 11 -4 11
-10z m-460 -25 c0 -8 7 -18 15 -22 10 -6 11 -13 5 -23 -8 -13 -10 -12 -10 3 0
9 -6 17 -12 17 -7 0 -13 11 -13 24 0 13 3 22 8 19 4 -2 7 -10 7 -18z m165 -4
c-6 -5 -25 10 -25 20 0 5 6 4 14 -3 8 -7 12 -15 11 -17z m432 7 c-3 -8 -6 -5
-6 6 -1 11 2 17 5 13 3 -3 4 -12 1 -19z m45 -10 c-8 -8 -9 -4 -5 13 4 13 8 18
11 10 2 -7 -1 -18 -6 -23z m-702 12 c0 -5 -5 -10 -11 -10 -5 0 -7 5 -4 10 3 6
8 10 11 10 2 0 4 -4 4 -10z m440 -10 c-7 -4 -16 -14 -21 -21 -6 -10 -8 -7 -6
8 0 12 5 19 9 17 4 -3 8 0 8 6 0 6 5 8 11 4 8 -5 8 -9 -1 -14z m-130 -31 c0
-7 -6 -4 -15 7 -19 25 -19 40 0 20 8 -8 15 -20 15 -27z m460 37 c0 -2 -7 -7
-16 -10 -8 -3 -12 -2 -9 4 6 10 25 14 25 6z m-967 -31 c-7 -21 -12 -19 -10 4
0 11 5 18 9 15 4 -3 5 -11 1 -19z m553 -2 c-6 -6 -36 9 -36 18 0 5 9 4 20 -3
10 -7 18 -14 16 -15z m-86 -3 c0 -5 -8 -10 -17 -10 -15 0 -16 2 -3 10 19 12
20 12 20 0z m337 -12 c-3 -8 -6 -5 -6 6 -1 11 2 17 5 13 3 -3 4 -12 1 -19z
m-397 2 c0 -5 -2 -10 -4 -10 -3 0 -8 5 -11 10 -3 6 -1 10 4 10 6 0 11 -4 11
-10z m240 -11 c0 -5 -4 -9 -10 -9 -5 0 -10 7 -10 16 0 8 5 12 10 9 6 -3 10
-10 10 -16z m407 -11 c-3 -8 -6 -5 -6 6 -1 11 2 17 5 13 3 -3 4 -12 1 -19z
m-731 1 c11 -19 -11 -30 -37 -19 -24 10 -23 10 4 5 27 -5 38 9 15 18 -10 4
-10 6 -1 6 6 1 15 -4 19 -10z m254 -4 c0 -8 -2 -15 -4 -15 -2 0 -11 -3 -20 -6
-9 -3 -16 -1 -16 6 0 6 5 8 10 5 6 -3 10 1 10 9 0 9 5 16 10 16 6 0 10 -7 10
-15z m87 -17 c-3 -8 -6 -5 -6 6 -1 11 2 17 5 13 3 -3 4 -12 1 -19z m317 -8
c-6 -6 -10 -3 -10 10 0 13 4 16 10 10 7 -7 7 -13 0 -20z m-803 4 c31 5 31 5 9
-4 -29 -13 -74 -4 -64 11 4 8 9 7 14 -1 5 -8 20 -10 41 -6z m175 -20 c-19 -19
-21 -11 -4 16 7 11 14 16 16 10 2 -5 -4 -17 -12 -26z m105 27 c5 8 9 9 9 4 0
-6 -6 -17 -12 -23 -10 -10 -10 -15 1 -21 7 -5 12 -14 9 -21 -2 -6 -14 7 -26
31 -16 30 -18 38 -7 29 14 -12 18 -11 26 1z m253 -7 c3 -8 2 -12 -4 -9 -6 3
-10 10 -10 16 0 14 7 11 14 -7z m-414 -40 c0 -17 17 -18 22 -2 3 7 7 3 10 -9
5 -19 3 -20 -21 -13 -26 7 -51 -7 -51 -30 0 -13 -27 -13 -35 0 -3 5 0 8 7 5
17 -7 42 31 27 41 -6 4 -15 0 -20 -7 -7 -11 -9 -10 -9 4 0 15 -18 22 -43 18
-5 -1 -6 3 -2 8 4 7 15 7 32 0 20 -7 28 -6 35 3 6 10 8 8 8 -4 0 -10 7 -18 15
-18 8 0 15 5 15 10 0 6 -4 10 -10 10 -5 0 -10 5 -10 11 0 8 5 8 15 -1 8 -7 15
-19 15 -26z m350 26 c0 -5 -2 -10 -4 -10 -3 0 -8 5 -11 10 -3 6 -1 10 4 10 6
0 11 -4 11 -10z m-262 -35 c-3 -3 -9 2 -12 12 -6 14 -5 15 5 6 7 -7 10 -15 7
-18z m192 4 c0 -5 -4 -9 -8 -9 -5 0 -9 7 -9 15 0 8 4 12 9 9 4 -3 8 -9 8 -15z
m37 -1 c-3 -8 -6 -5 -6 6 -1 11 2 17 5 13 3 -3 4 -12 1 -19z m-67 -11 c0 -17
-37 -57 -53 -57 -7 0 0 11 16 24 15 13 27 28 27 35 0 6 2 11 5 11 3 0 5 -6 5
-13z m120 3 c0 -5 -4 -10 -10 -10 -5 0 -10 5 -10 10 0 6 5 10 10 10 6 0 10 -4
10 -10z m145 -9 c3 -5 1 -12 -5 -16 -5 -3 -10 1 -10 9 0 18 6 21 15 7z m42
-13 c-3 -8 -6 -5 -6 6 -1 11 2 17 5 13 3 -3 4 -12 1 -19z m-653 -4 c3 -8 2
-12 -4 -9 -6 3 -10 10 -10 16 0 14 7 11 14 -7z m246 6 c0 -5 -5 -10 -11 -10
-5 0 -7 5 -4 10 3 6 8 10 11 10 2 0 4 -4 4 -10z m168 -41 c-3 -8 -7 -3 -11 10
-4 17 -3 21 5 13 5 -5 8 -16 6 -23z m-498 17 c0 -2 -7 -7 -16 -10 -8 -3 -12
-2 -9 4 6 10 25 14 25 6z m550 -17 c0 -5 -4 -9 -8 -9 -5 0 -9 7 -9 15 0 8 4
12 9 9 4 -3 8 -9 8 -15z m-404 -25 c-19 -19 -21 -11 -4 16 7 11 14 16 16 10 2
-5 -4 -17 -12 -26z m281 14 c-3 -8 -6 -5 -6 6 -1 11 2 17 5 13 3 -3 4 -12 1
-19z m-77 -47 c-1 -13 -30 34 -30 48 0 9 7 3 15 -13 8 -15 15 -31 15 -35z
m125 49 c3 -5 1 -10 -4 -10 -6 0 -11 5 -11 10 0 6 2 10 4 10 3 0 8 -4 11 -10z
m-108 -22 c-3 -8 -6 -5 -6 6 -1 11 2 17 5 13 3 -3 4 -12 1 -19z m-86 -18 c5 0
9 -8 9 -17 0 -15 -2 -14 -15 3 -8 10 -14 26 -14 34 1 11 3 10 6 -2 2 -10 9
-18 14 -18z m219 5 c0 -8 -4 -15 -10 -15 -5 0 -7 7 -4 15 4 8 8 15 10 15 2 0
4 -7 4 -15z m-376 -10 c3 -9 0 -15 -9 -15 -9 0 -12 6 -9 15 4 8 7 15 9 15 2 0
5 -7 9 -15z m496 -40 c0 -4 -9 4 -20 18 -11 14 -20 28 -20 32 0 4 9 -4 20 -18
11 -14 20 -28 20 -32z m-536 30 c3 -9 0 -15 -9 -15 -9 0 -12 6 -9 15 4 8 7 15
9 15 2 0 5 -7 9 -15z m76 0 c0 -8 -4 -15 -10 -15 -5 0 -7 7 -4 15 4 8 8 15 10
15 2 0 4 -7 4 -15z m76 -10 c-9 -9 -16 -13 -16 -8 0 12 22 34 28 28 2 -2 -3
-11 -12 -20z m81 -10 c-9 -7 -14 -15 -10 -18 3 -4 1 -7 -5 -7 -17 0 -15 20 3
26 8 4 12 11 8 17 -4 6 -1 7 7 2 10 -6 10 -11 -3 -20z m200 3 c-3 -8 -6 -5 -6
6 -1 11 2 17 5 13 3 -3 4 -12 1 -19z m-317 8 c0 -3 -4 -8 -10 -11 -5 -3 -10
-1 -10 4 0 6 5 11 10 11 6 0 10 -2 10 -4z m517 -21 c0 -8 -4 -12 -9 -9 -5 3
-6 10 -3 15 9 13 12 11 12 -6z m-567 -15 c6 -11 8 -20 6 -20 -3 0 -10 9 -16
20 -6 11 -8 20 -6 20 3 0 10 -9 16 -20z m46 -18 c-15 -15 -16 -15 -16 1 0 9
-5 17 -12 17 -6 0 -8 3 -5 6 4 4 13 1 22 -6 12 -10 15 -9 16 6 0 12 2 14 6 6
3 -8 -2 -21 -11 -30z m51 6 c-3 -8 -6 -5 -6 6 -1 11 2 17 5 13 3 -3 4 -12 1
-19z m180 0 c-3 -8 -6 -5 -6 6 -1 11 2 17 5 13 3 -3 4 -12 1 -19z m168 12 c3
-5 1 -10 -4 -10 -6 0 -11 5 -11 10 0 6 2 10 4 10 3 0 8 -4 11 -10z m-78 -32
c-3 -8 -6 -5 -6 6 -1 11 2 17 5 13 3 -3 4 -12 1 -19z m-147 2 c0 -5 -5 -10
-11 -10 -5 0 -7 5 -4 10 3 6 8 10 11 10 2 0 4 -4 4 -10z m100 0 c-8 -5 -19
-10 -25 -10 -5 0 -3 5 5 10 8 5 20 10 25 10 6 0 3 -5 -5 -10z m-418 -22 c-7
-7 -12 -8 -12 -2 0 14 12 26 19 19 2 -3 -1 -11 -7 -17z m108 -12 c0 -4 -9 -1
-19 6 -11 7 -17 16 -15 20 5 8 34 -15 34 -26z m340 24 c0 -5 -5 -10 -11 -10
-5 0 -7 5 -4 10 3 6 8 10 11 10 2 0 4 -4 4 -10z m-171 -44 c-3 -3 -11 5 -18
17 -13 21 -12 21 5 5 10 -10 16 -20 13 -22z m148 2 c-3 -8 -6 -5 -6 6 -1 11 2
17 5 13 3 -3 4 -12 1 -19z m-282 2 c3 -5 1 -10 -4 -10 -6 0 -11 5 -11 10 0 6
2 10 4 10 3 0 8 -4 11 -10z m156 -32 c-14 -14 -19 -29 -15 -41 5 -17 4 -18 -8
-6 -18 17 -19 39 -1 39 7 0 13 5 13 10 0 15 24 40 28 29 2 -4 -6 -18 -17 -31z
m84 -7 c3 -5 1 -12 -5 -16 -5 -3 -10 1 -10 9 0 18 6 21 15 7z m-249 -28 c-6
-6 -36 9 -36 18 0 5 9 4 20 -3 10 -7 18 -14 16 -15z m108 11 c3 -8 2 -12 -4
-9 -6 3 -10 10 -10 16 0 14 7 11 14 -7z m-76 -24 c-7 -11 -15 -15 -17 -9 -2 6
3 15 10 20 20 12 21 11 7 -11z m262 16 c0 -2 -9 -6 -20 -9 -11 -3 -18 -1 -14
4 5 9 34 13 34 5z m-310 -81 c-6 -8 -8 -20 -4 -27 5 -10 4 -10 -6 -1 -11 10
-11 15 0 28 7 8 15 15 17 15 3 0 0 -7 -7 -15z m31 -8 c-10 -9 -11 -8 -5 6 3
10 9 15 12 12 3 -3 0 -11 -7 -18z m249 3 c-20 -13 -30 -12 -30 1 0 5 4 8 9 4
5 -3 13 0 16 6 4 5 10 8 13 4 4 -3 0 -10 -8 -15z m36 -12 c-9 -12 -16 -19 -16
-15 0 11 24 47 28 42 2 -2 -3 -14 -12 -27z m-152 9 c4 4 4 -1 0 -10 -3 -10 -7
-17 -8 -15 -1 2 -8 12 -16 23 -14 18 -13 19 1 8 9 -7 19 -10 23 -6z m-39 -17
c10 -11 16 -20 13 -20 -3 0 -13 9 -23 20 -10 11 -16 20 -13 20 3 0 13 -9 23
-20z m-221 3 c-5 -5 -12 -12 -16 -18 -4 -6 -8 -2 -8 8 0 9 7 17 17 17 9 0 12
-3 7 -7z m193 -25 c-3 -8 -6 -5 -6 6 -1 11 2 17 5 13 3 -3 4 -12 1 -19z m-104
-13 c-3 -9 -8 -14 -10 -11 -3 3 -2 9 2 15 9 16 15 13 8 -4z m52 -5 c3 -6 -1
-7 -9 -4 -18 7 -21 14 -7 14 6 0 13 -4 16 -10z m90 -29 c-6 -5 -25 10 -25 20
0 5 6 4 14 -3 8 -7 12 -15 11 -17z m25 15 c0 -8 6 -17 13 -19 9 -4 9 -6 0 -6
-7 -1 -17 8 -23 19 -7 14 -7 20 0 20 5 0 10 -6 10 -14z m348 -12 c-12 -12 -17
-13 -23 -3 -5 8 -4 10 4 5 6 -4 14 0 17 9 4 9 9 13 12 10 3 -3 -1 -13 -10 -21z
m-748 1 c7 -8 9 -15 6 -15 -4 0 -14 7 -22 15 -9 8 -11 15 -6 15 5 0 15 -7 22
-15z m337 -7 c-3 -8 -6 -5 -6 6 -1 11 2 17 5 13 3 -3 4 -12 1 -19z m222 3 c7
-5 12 -13 10 -18 -2 -5 -12 -1 -21 9 -19 19 -13 24 11 9z m-352 -7 c-3 -3 -12
-4 -19 -1 -8 3 -5 6 6 6 11 1 17 -2 13 -5z m70 -16 c-3 -8 -6 -5 -6 6 -1 11 2
17 5 13 3 -3 4 -12 1 -19z m-50 -10 c-3 -8 -6 -5 -6 6 -1 11 2 17 5 13 3 -3 4
-12 1 -19z m93 12 c0 -5 -2 -10 -4 -10 -3 0 -8 5 -11 10 -3 6 -1 10 4 10 6 0
11 -4 11 -10z m55 0 c-3 -5 -12 -10 -18 -10 -7 0 -6 4 3 10 19 12 23 12 15 0z
m122 -22 c-3 -8 -6 -5 -6 6 -1 11 2 17 5 13 3 -3 4 -12 1 -19z m168 12 c3 -5
1 -10 -4 -10 -6 0 -11 5 -11 10 0 6 2 10 4 10 3 0 8 -4 11 -10z m-328 -32 c-3
-8 -6 -5 -6 6 -1 11 2 17 5 13 3 -3 4 -12 1 -19z m-52 -18 c3 -6 -1 -7 -9 -4
-18 7 -21 14 -7 14 6 0 13 -4 16 -10z m63 -16 c16 10 15 -2 -2 -19 -11 -12
-15 -10 -25 11 -15 34 -14 42 2 19 8 -10 19 -15 25 -11z m322 6 c0 -5 -2 -10
-4 -10 -3 0 -8 5 -11 10 -3 6 -1 10 4 10 6 0 11 -4 11 -10z m-513 -8 c8 -5 9
-13 3 -22 -8 -13 -10 -13 -10 2 0 9 -6 19 -12 21 -7 3 -8 6 -3 6 6 0 15 -3 22
-7z m281 -17 c-3 -3 -9 2 -12 12 -6 14 -5 15 5 6 7 -7 10 -15 7 -18z m-67 -19
c-7 -8 -9 -21 -5 -27 4 -8 3 -9 -4 -5 -15 9 -15 29 0 44 16 16 24 6 9 -12z
m66 -38 c-3 -8 -6 -5 -6 6 -1 11 2 17 5 13 3 -3 4 -12 1 -19z m-227 2 c0 -5
-8 -10 -17 -10 -15 0 -16 2 -3 10 19 12 20 12 20 0z m78 -10 c-7 -10 -14 -17
-17 -15 -4 4 18 35 25 35 2 0 -1 -9 -8 -20z m-52 -15 c-9 -9 -16 -13 -16 -8 0
12 22 34 28 28 2 -2 -3 -11 -12 -20z m332 0 c-3 -3 -9 2 -12 12 -6 14 -5 15 5
6 7 -7 10 -15 7 -18z m-218 5 c0 -5 -2 -10 -4 -10 -3 0 -8 5 -11 10 -3 6 -1
10 4 10 6 0 11 -4 11 -10z m314 -6 c3 -8 2 -12 -4 -9 -6 3 -10 10 -10 16 0 14
7 11 14 -7z m-404 -18 c0 -3 -4 -8 -10 -11 -5 -3 -10 -1 -10 4 0 6 5 11 10 11
6 0 10 -2 10 -4z m66 -31 c-14 -14 -16 -14 -16 -2 0 9 6 17 13 20 19 7 21 -1
3 -18z m-96 -15 c0 -5 -5 -10 -11 -10 -5 0 -7 5 -4 10 3 6 8 10 11 10 2 0 4
-4 4 -10z m107 -32 c-3 -8 -6 -5 -6 6 -1 11 2 17 5 13 3 -3 4 -12 1 -19z m81
-23 c-3 -3 -9 2 -12 12 -6 14 -5 15 5 6 7 -7 10 -15 7 -18z m-189 -54 c-1 -13
-2 -13 -6 2 -2 9 -9 17 -14 17 -5 0 -9 5 -9 11 0 8 5 8 15 -1 8 -7 14 -20 14
-29z m-11 -71 c-7 -10 -14 -17 -17 -15 -4 4 18 35 25 35 2 0 -1 -9 -8 -20z
m297 -10 c3 -6 -1 -7 -9 -4 -18 7 -21 14 -7 14 6 0 13 -4 16 -10z m-455 -53
c11 -5 9 -6 -4 -4 -11 1 -21 9 -23 17 -3 10 -2 11 4 4 4 -6 15 -14 23 -17z
m340 3 c0 -5 -5 -10 -11 -10 -5 0 -7 5 -4 10 3 6 8 10 11 10 2 0 4 -4 4 -10z
m-175 -29 c-6 -5 -25 10 -25 20 0 5 6 4 14 -3 8 -7 12 -15 11 -17z m-75 -6 c0
-8 -2 -15 -4 -15 -2 0 -6 7 -10 15 -3 8 -1 15 4 15 6 0 10 -7 10 -15z m140
-10 c14 -19 14 -19 -2 -6 -10 7 -18 18 -18 24 0 6 1 8 3 6 1 -2 9 -13 17 -24z
m27 3 c-3 -8 -6 -5 -6 6 -1 11 2 17 5 13 3 -3 4 -12 1 -19z m58 -38 c3 -5 1
-10 -4 -10 -6 0 -11 5 -11 10 0 6 2 10 4 10 3 0 8 -4 11 -10z m-243 -39 c-9
-16 -18 -28 -21 -26 -4 5 27 55 34 55 2 0 -4 -13 -13 -29z m113 0 c-6 -5 -25
10 -25 20 0 5 6 4 14 -3 8 -7 12 -15 11 -17z m52 -3 c-3 -8 -6 -5 -6 6 -1 11
2 17 5 13 3 -3 4 -12 1 -19z m-59 -82 c-7 -8 -15 -12 -17 -11 -5 6 10 25 20
25 5 0 4 -6 -3 -14z m172 -9 c0 -2 -10 -12 -22 -23 l-23 -19 19 23 c18 21 26
27 26 19z m-15 -77 c-3 -5 -14 -10 -23 -9 -14 0 -13 2 3 9 27 11 27 11 20 0z
m82 -192 c-3 -8 -6 -5 -6 6 -1 11 2 17 5 13 3 -3 4 -12 1 -19z m-248 -182 c-3
-3 -11 5 -18 17 -13 21 -12 21 5 5 10 -10 16 -20 13 -22z m24 -141 c-3 -9 -8
-14 -10 -11 -3 3 -2 9 2 15 9 16 15 13 8 -4z m64 -257 c-3 -8 -6 -5 -6 6 -1
11 2 17 5 13 3 -3 4 -12 1 -19z m-107 -20 c-13 -13 -19 -16 -15 -8 14 25 28
41 32 36 3 -3 -5 -15 -17 -28z m-75 2 c-3 -5 -12 -10 -18 -10 -7 0 -6 4 3 10
19 12 23 12 15 0z m182 -272 c-3 -8 -6 -5 -6 6 -1 11 2 17 5 13 3 -3 4 -12 1
-19z"/>
<path d="M3124 4011 c7 -10 31 -9 42 2 4 4 -5 7 -20 7 -15 0 -25 -4 -22 -9z"/>
<path d="M3086 3995 c-3 -8 -1 -15 3 -15 5 0 11 7 15 15 3 8 1 15 -3 15 -5 0
-11 -7 -15 -15z"/>
<path d="M1430 3989 c0 -5 5 -7 10 -4 6 3 10 8 10 11 0 2 -4 4 -10 4 -5 0 -10
-5 -10 -11z"/>
<path d="M1160 3890 c0 -5 5 -10 11 -10 5 0 7 5 4 10 -3 6 -8 10 -11 10 -2 0
-4 -4 -4 -10z"/>
<path d="M1130 3870 c0 -5 5 -10 10 -10 6 0 10 5 10 10 0 6 -4 10 -10 10 -5 0
-10 -4 -10 -10z"/>
<path d="M1228 3855 c2 -14 9 -25 14 -25 6 0 7 7 4 16 -3 9 -6 20 -6 25 0 5
-4 9 -9 9 -4 0 -6 -11 -3 -25z"/>
<path d="M1330 3900 c0 -5 7 -10 15 -10 8 0 15 5 15 10 0 6 -7 10 -15 10 -8 0
-15 -4 -15 -10z"/>
<path d="M1828 4443 c7 -3 16 -2 19 1 4 3 -2 6 -13 5 -11 0 -14 -3 -6 -6z"/>
<path d="M1468 4383 c6 -2 18 -2 25 0 6 3 1 5 -13 5 -14 0 -19 -2 -12 -5z"/>
<path d="M1225 4330 c-3 -6 1 -7 9 -4 18 7 21 14 7 14 -6 0 -13 -4 -16 -10z"/>
</g>
</svg>
