<?xml version="1.0" standalone="no"?>
<!DOCTYPE svg PUBLIC "-//W3C//DTD SVG 20010904//EN"
 "http://www.w3.org/TR/2001/REC-SVG-20010904/DTD/svg10.dtd">
<svg version="1.0" xmlns="http://www.w3.org/2000/svg"
 width="238.000000pt" height="271.000000pt" viewBox="0 0 238.000000 271.000000"
 preserveAspectRatio="xMidYMid meet">

<g transform="translate(0.000000,271.000000) scale(0.100000,-0.100000)"
fill="#000000" stroke="none">
<path d="M1249 2682 c-159 -65 -317 -239 -434 -477 -73 -150 -162 -430 -200
-629 -17 -89 -9 -140 25 -171 15 -13 20 -31 20 -68 0 -44 -4 -53 -36 -83 -19
-19 -42 -34 -51 -34 -32 0 -107 -46 -145 -90 -50 -57 -113 -186 -129 -267 -12
-60 -12 -63 10 -87 21 -22 23 -36 26 -133 3 -118 19 -181 68 -278 41 -83 134
-171 227 -217 61 -30 70 -37 47 -38 -16 0 -26 -4 -22 -10 7 -11 207 -14 268
-4 22 4 37 12 37 20 0 21 13 17 72 -21 115 -76 129 -80 276 -78 73 1 143 5
155 9 22 7 22 8 -3 14 -24 6 -23 8 20 30 70 35 149 92 220 157 36 32 78 67 93
76 61 39 168 215 203 332 35 121 3 279 -75 367 -36 42 -38 65 -12 158 16 57
22 67 53 82 71 34 94 115 119 418 39 480 -71 826 -300 949 -117 62 -203 84
-351 88 -114 3 -142 0 -181 -15z m341 -236 c134 -177 171 -511 106 -950 -14
-96 -7 -157 21 -188 12 -13 14 -28 9 -62 -4 -25 -11 -48 -15 -50 -5 -3 -33 3
-63 14 -125 44 -237 35 -376 -30 l-83 -39 -52 41 c-62 49 -192 114 -247 123
-33 6 -40 11 -40 30 0 16 10 30 30 42 30 17 70 84 70 116 0 31 78 321 109 405
104 282 255 492 409 572 32 16 62 29 69 30 7 0 31 -24 53 -54z m-1180 -1472
c-22 -42 -29 -50 -25 -29 6 29 46 97 53 90 2 -1 -11 -29 -28 -61z"/>
</g>
</svg>
