<?xml version="1.0" standalone="no"?>
<!DOCTYPE svg PUBLIC "-//W3C//DTD SVG 20010904//EN"
 "http://www.w3.org/TR/2001/REC-SVG-20010904/DTD/svg10.dtd">
<svg version="1.0" xmlns="http://www.w3.org/2000/svg"
 width="238.000000pt" height="271.000000pt" viewBox="0 0 238.000000 271.000000"
 preserveAspectRatio="xMidYMid meet">

<g transform="translate(0.000000,271.000000) scale(0.100000,-0.100000)"
fill="#000000" stroke="none">
<path d="M1189 2693 c-31 -3 -53 -11 -66 -26 -11 -12 -65 -150 -121 -307 -56
-157 -120 -336 -143 -397 l-42 -113 -43 0 c-33 0 -46 -5 -58 -22 -22 -31 -20
-38 9 -38 16 0 25 -6 25 -16 0 -12 -7 -15 -30 -12 -27 4 -30 2 -30 -24 0 -33
16 -68 38 -84 13 -9 4 -44 -66 -245 -45 -129 -82 -238 -82 -242 0 -4 31 -7 68
-7 37 0 123 -7 191 -15 68 -9 126 -14 128 -11 5 5 59 153 73 201 9 30 182 537
193 565 38 99 48 143 36 151 -9 6 -1 9 24 9 44 0 53 -14 36 -56 -18 -48 -299
-878 -299 -885 0 -4 25 -15 55 -24 58 -19 144 -76 215 -144 24 -23 45 -40 46
-38 2 2 29 85 61 186 l58 183 3 -277 c2 -233 0 -281 -13 -309 l-16 -33 -112
17 c-62 10 -152 23 -200 30 -75 10 -94 17 -123 43 -19 16 -42 44 -51 61 -9 17
-21 35 -27 39 -6 5 0 6 14 3 53 -12 310 -40 315 -34 10 10 -15 41 -70 85 -111
90 -148 102 -447 144 -84 11 -159 21 -165 22 -7 0 -13 5 -13 10 0 6 -3 7 -6 4
-9 -9 24 -57 39 -57 8 0 24 -12 38 -26 13 -14 54 -46 90 -70 65 -43 67 -45 71
-95 6 -58 45 -121 96 -155 18 -13 64 -27 105 -34 39 -6 78 -13 85 -15 9 -4 12
-30 10 -102 l-3 -98 -40 -3 c-218 -14 -395 -61 -472 -126 -42 -35 -42 -61 0
-104 25 -27 27 -32 9 -23 -20 10 -22 9 -22 -11 0 -13 -3 -33 -6 -44 -7 -25 21
-56 78 -85 21 -10 39 -19 40 -19 2 0 3 24 3 54 l0 53 65 -18 c36 -11 66 -19
67 -19 2 0 3 -20 3 -45 l0 -45 276 0 276 0 -4 30 c-4 28 -2 30 31 36 65 10
284 65 319 80 19 8 37 13 39 10 6 -6 -89 -44 -130 -51 -28 -5 -35 -11 -28 -18
6 -6 11 -28 11 -49 0 -34 3 -38 25 -38 42 0 136 41 176 77 39 35 39 36 39 113
0 62 -4 82 -20 103 -44 55 -193 107 -370 127 -52 6 -110 14 -127 16 l-33 5 0
79 0 80 44 0 c57 0 209 63 236 97 29 37 25 44 -15 27 -43 -18 -65 -18 -65 -1
0 8 24 22 54 32 l53 18 7 105 c3 58 6 237 6 399 l0 293 24 0 c31 0 73 49 82
95 12 65 -11 114 -63 129 -13 4 -23 11 -23 16 0 5 43 144 95 308 52 164 95
305 95 313 0 23 -60 112 -115 170 -77 81 -107 90 -303 94 -92 1 -188 1 -213
-2z m269 -718 c-6 -14 -13 -23 -15 -21 -5 5 15 46 22 46 3 0 -1 -11 -7 -25z
m146 -247 c10 -37 7 -100 -4 -93 -5 3 -10 17 -10 31 0 21 -4 24 -36 24 -29 0
-35 3 -30 16 3 9 6 22 6 30 0 9 11 14 34 14 26 0 35 -5 40 -22z m-106 -261
c-2 -269 -6 -242 -10 70 -2 105 0 189 5 186 4 -2 6 -118 5 -256z m-691 -624
c-3 -10 -5 -2 -5 17 0 19 2 27 5 18 2 -10 2 -26 0 -35z"/>
</g>
</svg>
